<?xml version="1.0" encoding="UTF-8" standalone="no"?><!-- Generator: Gravit.io --><svg xmlns="http://www.w3.org/2000/svg" xmlns:xlink="http://www.w3.org/1999/xlink" style="isolation:isolate" viewBox="0 0 293.793 260.901" width="293.793pt" height="260.901pt"><defs><clipPath id="_clipPath_KiFkabxSfN6YTR4yh4F1IWfxk1kpj7tt"><rect width="293.793" height="260.901"/></clipPath></defs><g clip-path="url(#_clipPath_KiFkabxSfN6YTR4yh4F1IWfxk1kpj7tt)"><g><g><path d=" M 237.899 172.803 L 242.58 170.44 L 238.095 162.748 L 237.899 172.803 L 237.899 172.803 Z " fill="rgb(177,180,196)"/><path d=" M 264.743 185.573 L 235.694 168.802 L 264.743 152.032 L 293.793 168.802 L 264.743 185.573 L 264.743 185.573 Z " fill="rgb(239,218,134)"/><path d=" M 291.833 203.08 L 264.743 218.723 L 264.743 187.444 L 291.833 171.807 L 291.833 203.08 L 291.833 203.08 Z " fill="rgb(209,182,107)"/><path d=" M 264.743 218.723 L 237.66 203.08 L 237.66 171.807 L 264.743 187.444 L 264.743 218.723 L 264.743 218.723 Z " fill="rgb(226,201,121)"/><g opacity="0.1"><path d=" M 237.66 171.807 L 237.66 179.991 L 264.743 195.451 L 264.743 187.481 L 237.66 171.807 L 237.66 171.807 Z " fill="rgb(0,0,0)"/></g><g opacity="0.1"><path d=" M 291.833 171.807 L 291.833 180.577 L 264.75 195.451 L 264.743 187.481 L 291.833 171.807 L 291.833 171.807 Z " fill="rgb(0,0,0)"/></g><path d=" M 235.694 168.802 L 235.694 177.477 L 264.743 194.021 L 264.743 185.573 L 235.694 168.802 L 235.694 168.802 Z " fill="rgb(226,201,121)"/><path d=" M 264.743 194.021 L 293.793 178.151 L 293.793 168.802 L 264.743 185.573 L 264.743 194.021 L 264.743 194.021 Z " fill="rgb(209,182,107)"/><path d=" M 230.043 205.348 L 200.994 188.578 L 230.043 171.807 L 259.092 188.578 L 230.043 205.348 L 230.043 205.348 Z " fill="rgb(239,218,134)"/><path d=" M 257.127 222.862 L 230.043 238.498 L 230.043 207.225 L 257.127 191.589 L 257.127 222.862 L 257.127 222.862 Z " fill="rgb(209,182,107)"/><path d=" M 230.043 238.498 L 202.96 222.862 L 202.96 191.589 L 230.043 207.225 L 230.043 238.498 L 230.043 238.498 Z " fill="rgb(226,201,121)"/><g opacity="0.1"><path d=" M 202.96 191.589 L 202.96 199.773 L 230.043 215.226 L 230.043 207.257 L 202.96 191.589 L 202.96 191.589 Z " fill="rgb(0,0,0)"/></g><g opacity="0.1"><path d=" M 257.127 191.589 L 257.127 200.352 L 230.043 215.226 L 230.043 207.257 L 257.127 191.589 L 257.127 191.589 Z " fill="rgb(0,0,0)"/></g><path d=" M 200.994 188.578 L 200.994 197.253 L 230.043 213.796 L 230.043 205.348 L 200.994 188.578 L 200.994 188.578 Z " fill="rgb(226,201,121)"/><path d=" M 230.043 213.796 L 259.092 197.933 L 259.092 188.578 L 230.043 205.348 L 230.043 213.796 L 230.043 213.796 Z " fill="rgb(209,182,107)"/><g opacity="0.05"><path d=" M 229.911 197.517 L 215.843 189.208 L 231.077 180.413 L 245.144 188.723 L 229.911 197.517 L 229.911 197.517 Z " fill="rgb(0,0,0)"/></g><path d=" M 231.738 179.109 L 216.498 170.314 L 231.738 161.513 L 246.971 170.314 L 231.738 179.109 L 231.738 179.109 Z " fill="rgb(239,218,134)"/><path d=" M 245.938 188.294 L 231.738 196.49 L 231.738 180.092 L 245.938 171.889 L 245.938 188.294 L 245.938 188.294 Z " fill="rgb(209,182,107)"/><path d=" M 231.738 196.49 L 217.532 188.294 L 217.532 171.889 L 231.738 180.092 L 231.738 196.49 L 231.738 196.49 Z " fill="rgb(226,201,121)"/><g opacity="0.1"><path d=" M 217.532 171.889 L 217.532 176.179 L 231.738 184.287 L 231.738 180.104 L 217.532 171.889 L 217.532 171.889 Z " fill="rgb(0,0,0)"/></g><g opacity="0.1"><path d=" M 245.938 171.889 L 245.938 176.488 L 231.738 184.287 L 231.738 180.104 L 245.938 171.889 L 245.938 171.889 Z " fill="rgb(0,0,0)"/></g><path d=" M 216.498 170.314 L 216.498 174.863 L 231.738 183.538 L 231.738 179.109 L 216.498 170.314 L 216.498 170.314 Z " fill="rgb(226,201,121)"/><path d=" M 231.738 183.538 L 246.971 175.215 L 246.971 170.314 L 231.738 179.109 L 231.738 183.538 L 231.738 183.538 Z " fill="rgb(209,182,107)"/><g opacity="0.4"><path d=" M 206.066 260.901 L 184.388 248.326 L 207.616 234.914 L 229.294 247.488 L 206.066 260.901 L 206.066 260.901 Z " fill="rgb(214,216,229)"/></g><path d=" M 208.504 232.973 L 185.276 219.561 L 208.504 206.148 L 231.738 219.561 L 208.504 232.973 L 208.504 232.973 Z " fill="rgb(239,218,134)"/><path d=" M 230.163 246.972 L 208.504 259.484 L 208.504 234.473 L 230.163 221.961 L 230.163 246.972 L 230.163 246.972 Z " fill="rgb(209,182,107)"/><path d=" M 208.504 259.484 L 186.845 246.972 L 186.845 221.961 L 208.504 234.473 L 208.504 259.484 L 208.504 259.484 Z " fill="rgb(226,201,121)"/><g opacity="0.1"><path d=" M 186.845 221.961 L 186.845 228.507 L 208.504 240.867 L 208.504 234.498 L 186.845 221.961 L 186.845 221.961 Z " fill="rgb(0,0,0)"/></g><g opacity="0.1"><path d=" M 230.163 221.961 L 230.163 228.973 L 208.504 240.867 L 208.504 234.498 L 230.163 221.961 L 230.163 221.961 Z " fill="rgb(0,0,0)"/></g><path d=" M 185.276 219.561 L 185.276 226.497 L 208.504 239.727 L 208.504 232.973 L 185.276 219.561 L 185.276 219.561 Z " fill="rgb(226,201,121)"/><path d=" M 208.504 239.727 L 231.738 227.039 L 231.738 219.561 L 208.504 232.973 L 208.504 239.727 L 208.504 239.727 Z " fill="rgb(209,182,107)"/><g opacity="0.4"><path d=" M 47.572 131.708 L 23.084 117.571 L 57.683 98.079 L 82.171 112.216 L 47.572 131.708 L 47.572 131.708 Z " fill="rgb(214,216,229)"/></g><path d=" M 48.989 101.26 L 24.501 87.123 L 59.1 67.631 L 83.588 81.768 L 48.989 101.26 L 48.989 101.26 Z " fill="rgb(239,218,134)"/><path d=" M 81.931 110.666 L 48.989 129.201 L 48.989 102.835 L 81.931 84.301 L 81.931 110.666 L 81.931 110.666 Z " fill="rgb(209,182,107)"/><path d=" M 48.989 129.201 L 26.158 116.021 L 26.158 89.656 L 48.989 102.835 L 48.989 129.201 L 48.989 129.201 Z " fill="rgb(226,201,121)"/><g opacity="0.1"><path d=" M 26.158 89.656 L 26.158 96.554 L 48.989 109.583 L 48.989 102.867 L 26.158 89.656 L 26.158 89.656 Z " fill="rgb(0,0,0)"/></g><g opacity="0.1"><path d=" M 81.931 84.301 L 81.931 91.697 L 48.989 109.583 L 48.989 102.867 L 81.931 84.301 L 81.931 84.301 Z " fill="rgb(0,0,0)"/></g><path d=" M 24.501 87.123 L 24.501 94.431 L 48.989 108.379 L 48.989 101.26 L 24.501 87.123 L 24.501 87.123 Z " fill="rgb(226,201,121)"/><path d=" M 48.989 108.379 L 83.588 89.656 L 83.588 81.768 L 48.989 101.26 L 48.989 108.379 L 48.989 108.379 Z " fill="rgb(209,182,107)"/><g opacity="0.4"><path d=" M 13.104 149.619 L 2.042 143.432 L 18.667 134.07 L 29.73 140.257 L 13.104 149.619 L 13.104 149.619 Z " fill="rgb(214,216,229)"/></g><path d=" M 14.604 135.356 L 2.836 128.564 L 19.461 119.196 L 31.223 125.988 L 14.604 135.356 L 14.604 135.356 Z " fill="rgb(239,218,134)"/><path d=" M 30.429 139.873 L 14.604 148.775 L 14.604 136.112 L 30.429 127.21 L 30.429 139.873 L 30.429 139.873 Z " fill="rgb(209,182,107)"/><path d=" M 14.604 148.775 L 3.636 142.443 L 3.636 129.78 L 14.604 136.112 L 14.604 148.775 L 14.604 148.775 Z " fill="rgb(226,201,121)"/><g opacity="0.1"><path d=" M 3.636 129.78 L 3.636 133.094 L 14.604 139.35 L 14.604 136.124 L 3.636 129.78 L 3.636 129.78 Z " fill="rgb(0,0,0)"/></g><g opacity="0.1"><path d=" M 30.429 127.21 L 30.429 130.757 L 14.604 139.35 L 14.604 136.124 L 30.429 127.21 L 30.429 127.21 Z " fill="rgb(0,0,0)"/></g><path d=" M 2.836 128.564 L 2.836 132.073 L 14.604 138.776 L 14.604 135.356 L 2.836 128.564 L 2.836 128.564 Z " fill="rgb(226,201,121)"/><path d=" M 14.604 138.776 L 31.223 129.78 L 31.223 125.988 L 14.604 135.356 L 14.604 138.776 L 14.604 138.776 Z " fill="rgb(209,182,107)"/><g opacity="0.4"><path d=" M 98.015 152.712 L 64.191 133.157 L 88.679 119.02 L 122.503 138.575 L 98.015 152.712 L 98.015 152.712 Z " fill="rgb(214,216,229)"/></g><path d=" M 101.203 122.97 L 67.379 103.415 L 91.866 89.278 L 125.691 108.833 L 101.203 122.97 L 101.203 122.97 Z " fill="rgb(239,218,134)"/><path d=" M 124.034 137.731 L 101.203 150.91 L 101.203 124.551 L 124.034 111.365 L 124.034 137.731 L 124.034 137.731 Z " fill="rgb(209,182,107)"/><path d=" M 101.203 150.91 L 69.035 132.313 L 69.035 105.954 L 101.203 124.551 L 101.203 150.91 L 101.203 150.91 Z " fill="rgb(226,201,121)"/><g opacity="0.1"><path d=" M 69.035 105.954 L 69.035 112.852 L 101.203 131.292 L 101.203 124.576 L 69.035 105.954 L 69.035 105.954 Z " fill="rgb(0,0,0)"/></g><g opacity="0.1"><path d=" M 124.034 111.365 L 124.034 118.755 L 101.203 131.292 L 101.203 124.576 L 124.034 111.365 L 124.034 111.365 Z " fill="rgb(0,0,0)"/></g><path d=" M 67.379 103.415 L 67.379 110.729 L 101.203 130.089 L 101.203 122.97 L 67.379 103.415 L 67.379 103.415 Z " fill="rgb(226,201,121)"/><path d=" M 101.203 130.089 L 125.691 116.714 L 125.691 108.833 L 101.203 122.97 L 101.203 130.089 L 101.203 130.089 Z " fill="rgb(209,182,107)"/><g opacity="0.4"><path d=" M 263.213 247.488 L 242.675 235.682 L 258.248 226.686 L 278.78 238.498 L 263.213 247.488 L 263.213 247.488 Z " fill="rgb(214,216,229)"/></g><path d=" M 265.6 228.286 L 244.092 215.85 L 259.666 206.86 L 281.174 219.296 L 265.6 228.286 L 265.6 228.286 Z " fill="rgb(239,218,134)"/><path d=" M 280.122 237.673 L 265.6 246.058 L 265.6 229.288 L 280.122 220.909 L 280.122 237.673 L 280.122 237.673 Z " fill="rgb(209,182,107)"/><path d=" M 265.6 246.058 L 245.144 234.227 L 245.144 217.463 L 265.6 229.288 L 265.6 246.058 L 265.6 246.058 Z " fill="rgb(226,201,121)"/><g opacity="0.1"><path d=" M 245.144 217.463 L 245.144 221.854 L 265.6 233.578 L 265.6 229.307 L 245.144 217.463 L 245.144 217.463 Z " fill="rgb(0,0,0)"/></g><g opacity="0.1"><path d=" M 280.122 220.909 L 280.122 225.609 L 265.6 233.578 L 265.6 229.307 L 280.122 220.909 L 280.122 220.909 Z " fill="rgb(0,0,0)"/></g><path d=" M 244.092 215.85 L 244.092 220.499 L 265.6 232.816 L 265.6 228.286 L 244.092 215.85 L 244.092 215.85 Z " fill="rgb(226,201,121)"/><path d=" M 265.6 232.816 L 281.174 224.311 L 281.174 219.296 L 265.6 228.286 L 265.6 232.816 L 265.6 232.816 Z " fill="rgb(209,182,107)"/><path d=" M 57.444 73.106 L 37.573 61.627 L 57.444 50.161 L 77.314 61.627 L 57.444 73.106 L 57.444 73.106 Z " fill="rgb(239,218,134)"/><g opacity="0.05"><path d=" M 55.264 96.945 L 36.465 86.418 L 56.341 74.945 L 75.134 85.473 L 55.264 96.945 L 55.264 96.945 Z " fill="rgb(0,0,0)"/></g><path d=" M 75.972 85.082 L 57.444 95.779 L 57.444 74.385 L 75.972 63.687 L 75.972 85.082 L 75.972 85.082 Z " fill="rgb(209,182,107)"/><path d=" M 57.444 95.779 L 38.915 85.082 L 38.915 63.687 L 57.444 74.385 L 57.444 95.779 L 57.444 95.779 Z " fill="rgb(226,201,121)"/><g opacity="0.1"><path d=" M 38.915 63.687 L 38.915 69.288 L 57.444 79.859 L 57.444 74.404 L 38.915 63.687 L 38.915 63.687 Z " fill="rgb(0,0,0)"/></g><g opacity="0.1"><path d=" M 75.972 63.687 L 75.972 69.685 L 57.444 79.859 L 57.444 74.404 L 75.972 63.687 L 75.972 63.687 Z " fill="rgb(0,0,0)"/></g><path d=" M 37.573 61.627 L 37.573 67.562 L 57.444 78.883 L 57.444 73.106 L 37.573 61.627 L 37.573 61.627 Z " fill="rgb(226,201,121)"/><path d=" M 57.444 78.883 L 77.314 68.028 L 77.314 61.627 L 57.444 73.106 L 57.444 78.883 L 57.444 78.883 Z " fill="rgb(209,182,107)"/><g opacity="0.4"><path d=" M 51.213 174.044 L 25.944 159.541 L 53.046 143.892 L 78.315 158.401 L 51.213 174.044 L 51.213 174.044 Z " fill="rgb(214,216,229)"/></g><path d=" M 54.048 141.473 L 26.939 125.824 L 54.048 110.175 L 81.15 125.824 L 54.048 141.473 L 54.048 141.473 Z " fill="rgb(239,218,134)"/><path d=" M 79.317 157.809 L 54.048 172.399 L 54.048 143.218 L 79.317 128.627 L 79.317 157.809 L 79.317 157.809 Z " fill="rgb(209,182,107)"/><path d=" M 54.048 172.399 L 28.772 157.809 L 28.772 128.627 L 54.048 143.218 L 54.048 172.399 L 54.048 172.399 Z " fill="rgb(226,201,121)"/><g opacity="0.1"><path d=" M 28.772 128.627 L 28.772 136.263 L 54.048 150.683 L 54.048 143.249 L 28.772 128.627 L 28.772 128.627 Z " fill="rgb(0,0,0)"/></g><g opacity="0.1"><path d=" M 79.317 128.627 L 79.317 136.811 L 54.048 150.683 L 54.048 143.249 L 79.317 128.627 L 79.317 128.627 Z " fill="rgb(0,0,0)"/></g><path d=" M 26.939 125.824 L 26.939 133.913 L 54.048 149.354 L 54.048 141.473 L 26.939 125.824 L 26.939 125.824 Z " fill="rgb(226,201,121)"/><path d=" M 54.048 149.354 L 81.15 134.549 L 81.15 125.824 L 54.048 141.473 L 54.048 149.354 L 54.048 149.354 Z " fill="rgb(209,182,107)"/><g><path d=" M 101.379 71.978 C 102.444 74.41 105.43 85.838 107.963 88.837 C 110.495 91.836 123.083 92.106 123.083 92.106 L 121.029 85.599 L 112.965 83.545 L 108.813 73.194 L 101.379 71.978 Z " fill="rgb(255,206,169)"/><path d=" M 117.955 81.926 C 113.154 83.135 112.026 80.105 111.39 77.598 C 109.865 71.531 108.908 84.402 110.918 86.021 C 113.393 88.024 114.194 89.744 119.838 88.339 C 122.245 87.709 124.878 86.298 129.446 84.175 C 130.668 83.608 131.619 83.224 133.963 82.134 C 136.306 81.044 138.751 79.217 139.979 77.434 C 141.208 75.651 141.378 74.819 141.126 74.41 C 140.811 73.9 140.25 74.013 139.595 74.763 C 138.645 76.027 137.475 77.111 136.143 77.963 C 136.143 77.963 137.655 76.394 138.48 75.374 C 139.216 74.471 139.826 73.473 140.294 72.406 C 140.729 71.367 139.834 69.962 139.154 70.699 C 138.474 71.436 138.152 72.192 136.911 73.685 C 136.257 74.477 135.51 75.187 134.687 75.802 C 135.457 74.76 136.141 73.658 136.735 72.507 C 137.263 71.606 137.523 70.572 137.484 69.527 C 137.447 68.979 136.684 68.337 135.96 69.364 C 135.33 70.29 134.895 71.739 133.383 73.307 C 132.287 74.448 131.355 75.097 131.329 74.782 C 131.304 74.467 131.991 73.843 132.381 72.52 C 132.772 71.197 132.381 69.792 131.651 69.641 C 130.92 69.49 131.058 69.527 130.466 70.768 C 129.874 72.01 128.98 72.923 128.287 74.731 C 127.915 76.008 127.238 77.176 126.315 78.133 C 125.13 79.387 122.522 80.773 117.955 81.926 Z " fill="rgb(255,206,169)"/><g opacity="0.4"><ellipse vector-effect="non-scaling-stroke" cx="123.76314544791715" cy="186.16474063324603" rx="27.05829906312856" ry="15.623883975915902" fill="rgb(214,216,229)"/></g><path d=" M 110.918 57.488 C 108.758 56.484 106.189 57.259 104.945 59.29 C 103.364 61.911 101.72 70.882 101.575 72.413 C 101.575 72.413 103.786 75.475 107.112 74.964 L 110.918 57.488 Z " fill="rgb(237,237,237)"/><path d=" M 123.177 184.168 C 125.509 184.804 127.997 184.501 130.107 183.323 C 131.777 183.374 140.861 179.487 142.077 182.75 C 143.161 185.61 139.223 188.256 137.125 188.767 C 132.533 189.882 129.143 192.169 127.297 192.547 C 125.924 192.836 124.147 193.032 123.051 191.948 C 121.779 190.663 121.892 185.869 123.177 184.168 Z " fill="rgb(43,42,48)"/><path d=" M 127.335 191.765 C 129.181 191.375 132.57 189.088 137.163 187.985 C 138.921 187.563 141.957 185.636 142.266 183.336 C 142.669 185.969 139.116 188.307 137.163 188.779 C 132.57 189.894 129.181 192.181 127.335 192.559 C 125.962 192.849 124.185 193.044 123.089 191.961 C 122.806 191.648 122.6 191.272 122.491 190.865 C 124.103 192.187 125.993 192.055 127.335 191.765 Z " fill="rgb(191,75,75)"/><path d=" M 108.442 177.546 C 110.772 178.189 113.261 177.888 115.372 176.709 C 117.047 176.759 126.126 172.872 127.342 176.135 C 128.419 178.995 124.488 181.641 122.383 182.152 C 117.797 183.267 114.401 185.554 112.562 185.932 C 111.188 186.221 109.412 186.417 108.316 185.333 C 107.049 184.042 107.163 179.254 108.442 177.546 Z " fill="rgb(43,42,48)"/><path d=" M 112.606 185.15 C 114.446 184.76 117.841 182.473 122.428 181.37 C 124.192 180.948 127.222 179.021 127.531 176.721 C 127.94 179.354 124.381 181.692 122.428 182.164 C 117.841 183.279 114.446 185.566 112.606 185.944 C 111.233 186.234 109.456 186.429 108.36 185.346 C 108.067 185.034 107.851 184.659 107.73 184.25 C 109.355 185.573 111.233 185.44 112.606 185.15 Z " fill="rgb(191,75,75)"/><path d=" M 108.265 152.869 C 108.656 149.496 109.358 146.166 110.363 142.922 C 110.363 142.922 109.733 134.335 109.424 126.195 C 109.065 116.96 105.865 108.833 108.391 101.462 L 136.892 107.812 C 136.892 107.812 135.166 144.635 134.788 149.096 C 134.582 152.565 134.161 156.017 133.528 159.434 C 132.224 166.584 130.113 183.588 130.113 183.588 C 127.096 185.339 123.139 184.369 123.139 184.369 C 123.139 184.369 123.36 162.868 123.555 157.714 C 123.788 151.414 123.984 151.906 123.984 151.906 L 123.039 136.238 L 122.409 128.445 C 122.409 128.445 121.621 134.165 121.111 139.274 C 120.664 143.728 119.586 147.754 118.383 156.051 C 117.343 163.246 115.649 177.698 115.649 177.698 C 112.637 179.449 108.542 177.994 108.542 177.994 C 108.542 177.994 107.446 159.113 108.265 152.869 Z " fill="rgb(226,97,97)"/><path d=" M 112.43 57.639 C 114.597 57.746 116.21 58.307 116.487 57.639 C 116.718 56.52 116.882 55.389 116.978 54.25 C 116.726 53.62 116.512 52.946 116.512 52.946 C 113.79 51.264 112.927 48.322 112.568 44.888 C 111.938 39.023 115.126 33.895 120.991 33.277 C 126.504 32.704 130.554 36.579 131.638 41.896 C 132.224 44.523 133.383 49.487 131.814 53.809 C 130.939 56.222 129.805 58.137 128.665 58.515 C 127.572 58.484 126.482 58.387 125.401 58.225 L 125.401 58.225 C 125.401 58.225 125.105 59.851 124.903 60.896 C 124.903 60.896 124.784 62.497 126.863 63.776 C 126.863 63.776 123.713 67.694 120.304 67.436 C 120.304 67.436 113.041 65.111 111.989 62.906 C 110.836 60.474 110.936 57.57 112.43 57.639 Z " fill="rgb(255,206,169)"/><path d=" M 115.567 57.967 C 114.968 59.466 116.493 61.3 120.569 62.579 C 124.645 63.857 125.011 62.213 125.011 62.213 C 125.011 62.213 130.989 64.935 132.936 66.296 C 135.387 68.003 136.47 72.955 136.798 81.308 C 137.182 90.979 137.214 105.324 136.892 107.8 C 136.892 107.8 132.318 112.354 126.466 111.876 C 120.613 111.397 110.773 106.206 108.385 102.218 C 108.448 93.738 109.437 92.358 108.064 87.476 C 104.914 76.294 103.269 71.726 104.794 64.286 C 106.054 58.162 107.818 57.4 110.237 57.463 C 112.022 57.534 113.801 57.702 115.567 57.967 L 115.567 57.967 Z " fill="rgb(244,244,244)"/><path d=" M 145.996 89.303 C 141.195 90.513 140.067 87.489 139.437 84.981 C 137.907 78.908 137.081 73.427 135.947 69.981 C 134.605 65.918 133.2 65.269 131.222 64.475 C 128.904 63.549 126.913 65.508 127.682 70.68 C 128.595 76.798 129.792 81.094 132.092 88.32 C 132.684 90.21 134.026 93.568 136.035 95.193 C 138.511 97.197 142.241 97.083 147.886 95.704 C 150.299 95.074 152.926 93.669 157.493 91.539 C 158.715 90.972 159.667 90.594 162.01 89.498 C 164.354 88.402 166.798 86.581 168.033 84.805 C 169.268 83.028 169.425 82.184 169.173 81.781 C 168.858 81.271 168.298 81.384 167.642 82.134 C 166.692 83.396 165.522 84.478 164.19 85.328 C 164.19 85.328 165.702 83.759 166.527 82.745 C 167.264 81.842 167.874 80.844 168.342 79.777 C 168.776 78.738 167.882 77.327 167.201 78.064 C 166.521 78.801 166.2 79.563 164.959 81.05 C 164.303 81.842 163.557 82.555 162.735 83.173 C 163.503 82.128 164.188 81.025 164.782 79.872 C 165.311 78.971 165.572 77.937 165.532 76.892 C 165.494 76.35 164.732 75.708 164.014 76.735 C 163.384 77.654 162.943 79.103 161.431 80.672 C 160.334 81.812 159.402 82.468 159.377 82.153 C 159.352 81.838 160.038 81.208 160.429 79.885 C 160.819 78.562 160.429 77.157 159.698 77.005 C 158.967 76.854 159.106 76.892 158.52 78.133 C 157.934 79.374 157.027 80.288 156.334 82.102 C 155.96 83.384 155.277 84.555 154.343 85.51 C 153.171 86.764 150.563 88.156 145.996 89.303 Z " fill="rgb(255,206,169)"/><path d=" M 129.446 63.65 C 132.652 63.177 134.92 64.62 136.338 69.477 C 137.755 74.334 138.738 78.297 138.738 78.297 C 137.471 80.13 135.55 81.408 133.371 81.869 C 129.534 82.795 128.154 80.962 128.154 80.962 C 128.154 80.962 127.09 75.871 126.428 72.406 C 125.767 68.942 125.477 64.235 129.446 63.65 Z " fill="rgb(237,237,237)"/><path d=" M 131.455 41.146 C 131.455 41.146 136.495 33.448 125.54 31.879 C 117.621 30.745 112.537 35.829 111.951 41.329 C 111.384 46.602 114.635 52.077 116.991 54.25 C 118.137 54.66 120.601 54.88 123.832 53.425 C 123.965 51.988 124.015 50.545 123.984 49.103 C 123.984 49.103 120.115 41.033 131.455 41.146 Z " fill="rgb(43,42,48)"/></g><g><path d=" M 211.836 150.929 C 211.542 151.13 211.219 151.288 210.879 151.395 L 206.349 148.762 C 205.417 144.409 203.319 134.568 202.198 129.465 C 200.736 122.806 200.484 118.963 199.728 114.837 C 198.814 109.841 196.836 86.525 196.836 86.525 L 196.055 86.569 L 193.951 112.884 C 194.596 114.826 195.039 116.829 195.274 118.862 C 195.728 122.233 195.098 136.225 194.808 142.103 L 194.808 142.103 L 190.02 139.331 L 188.092 138.222 C 186.548 129.572 183.953 114.635 183.953 111.592 C 183.953 108.719 184.451 70.806 184.451 70.806 L 211.824 77.824 C 211.736 80.798 210.803 93.707 210.394 100.548 C 209.984 107.39 209.884 115.763 209.884 115.763 C 209.884 115.763 211.062 120.74 211.824 126.599 C 212.586 132.458 211.836 150.929 211.836 150.929 Z " fill="rgb(140,80,255)"/><path d=" M 204.743 20.337 C 204.743 20.337 204.409 26.82 204.554 27.393 C 204.554 27.393 207.527 29.869 208.334 30.543 C 208.334 30.543 203.848 36.459 201.271 37.643 C 201.271 37.643 190.511 35.709 190.366 31.69 C 190.366 31.69 191.765 24.306 193.019 24.13 C 194.272 23.954 204.743 20.337 204.743 20.337 Z " fill="rgb(255,206,169)"/><path d=" M 186.952 32.364 C 186.574 29.51 188.451 26.795 186.624 24.514 C 180.223 30.814 181.042 47.396 179.587 58.017 C 174.831 62.988 165.28 67.883 162.577 69.093 C 162.086 69.32 161.657 69.559 161.758 70.082 C 162.142 72.154 162.741 72.942 163.982 74.945 C 170.282 72.217 174.862 70.655 182.756 63.152 C 183.504 62.34 184.175 61.461 184.759 60.525 C 187.034 53.752 187.601 37.309 186.952 32.364 Z " fill="rgb(255,206,169)"/><path d=" M 205.436 28.515 C 205.436 28.515 200.73 35.527 194.159 36.182 C 192.092 34.147 191.903 26.883 194.789 24.565 C 194.789 24.565 192.155 22.435 190.379 22.851 C 188.444 24.025 187.004 25.864 186.328 28.023 C 184.637 32.841 183.832 37.925 183.953 43.03 C 184.066 49.909 183.953 70.932 183.953 70.932 C 183.953 70.932 184.879 75.38 190.814 78.688 C 196.748 81.995 201.164 82.316 205.19 81.378 C 208.51 80.603 211.257 79.431 212.403 77.018 C 212.107 72.199 209.953 59.611 210.759 53.551 C 211.566 47.49 212.844 42.961 213.172 38.059 C 213.5 33.158 212.542 33.252 210.066 31.507 C 208.596 30.4 207.049 29.4 205.436 28.515 Z " fill="rgb(244,244,244)"/><path d=" M 190.032 10.667 L 190.032 10.667 C 190.807 5.627 194.442 1.847 199.627 2.105 C 203.915 2.314 207.589 5.243 208.749 9.376 C 209.909 13.509 208.296 17.921 204.743 20.331 C 204.559 21.095 204.289 21.834 203.936 22.536 C 202.103 24.684 196.547 26.007 194.953 25.781 C 192.905 25.484 191.803 24.634 190.82 22.391 C 189.068 18.441 189.623 13.155 190.032 10.667 Z " fill="rgb(255,206,169)"/><path d=" M 204.743 20.331 L 204.743 20.331 L 204.264 15.921 C 204.264 15.921 207.855 6.635 199.375 8.418 C 193.781 9.596 192.376 10.106 190.669 6.351 C 188.961 2.597 194.972 -0.78 202.103 0.159 C 207.194 0.694 211.026 5.039 210.923 10.157 C 210.709 12.941 209.972 18.529 204.743 20.331 Z " fill="rgb(58,44,109)"/><path d=" M 180.866 59.561 L 160.996 48.089 L 180.866 36.616 L 200.736 48.089 L 180.866 59.561 L 180.866 59.561 Z " fill="rgb(239,218,134)"/><path d=" M 199.394 71.543 L 180.866 82.241 L 180.866 60.846 L 199.394 50.149 L 199.394 71.543 L 199.394 71.543 Z " fill="rgb(209,182,107)"/><path d=" M 180.866 82.241 L 162.338 71.543 L 162.338 50.149 L 180.866 60.846 L 180.866 82.241 L 180.866 82.241 Z " fill="rgb(226,201,121)"/><g opacity="0.1"><path d=" M 162.338 50.149 L 162.338 55.743 L 180.866 66.321 L 180.866 60.865 L 162.338 50.149 L 162.338 50.149 Z " fill="rgb(0,0,0)"/></g><g opacity="0.1"><path d=" M 199.394 50.149 L 199.394 56.146 L 180.866 66.321 L 180.866 60.865 L 199.394 50.149 L 199.394 50.149 Z " fill="rgb(0,0,0)"/></g><path d=" M 160.996 48.089 L 160.996 54.023 L 180.866 65.338 L 180.866 59.561 L 160.996 48.089 L 160.996 48.089 Z " fill="rgb(226,201,121)"/><path d=" M 180.866 65.338 L 200.736 54.489 L 200.736 48.089 L 180.866 59.561 L 180.866 65.338 L 180.866 65.338 Z " fill="rgb(209,182,107)"/><path d=" M 214.64 35.167 C 212.177 34.462 214.054 35.048 212.177 34.462 C 205.776 40.762 206.576 51.472 205.121 62.125 C 201.593 67.965 188.476 75.884 188.476 75.884 C 188.312 77.012 188.709 77.352 190.127 79.664 C 196.427 76.936 201.738 74.586 209.657 67.064 C 209.965 66.768 210.425 66.692 210.558 66.283 C 212.788 59.504 215.289 40.107 214.64 35.167 Z " fill="rgb(255,206,169)"/><path d=" M 191.777 76.117 C 191.462 75.008 190.656 75.279 189.755 75.563 C 188.771 75.957 187.692 76.049 186.656 75.827 C 185.799 75.563 185.175 74.819 184.444 74.328 C 184.02 74.079 183.538 73.942 183.046 73.931 C 183.09 74.215 183.525 75.871 183.525 75.871 C 183.525 75.871 178.944 75.916 178.485 75.821 C 178.161 75.755 177.832 75.903 177.667 76.189 C 177.501 76.474 177.536 76.833 177.754 77.081 C 177.653 77.081 177.546 77.081 177.445 77.037 C 176.506 76.829 176.109 78.297 177.048 78.48 C 177.3 78.536 177.558 78.562 177.817 78.593 C 177.187 78.832 177.048 79.853 177.817 79.992 L 178.056 80.029 C 178.162 80.073 178.276 80.091 178.39 80.08 L 178.535 80.08 C 178.493 80.301 178.543 80.53 178.674 80.713 C 178.805 80.896 179.005 81.018 179.228 81.05 C 181.464 81.34 184.759 82.234 186.788 80.389 C 188.192 80.253 189.564 79.882 190.845 79.292 C 192.143 78.7 192.143 77.446 191.777 76.117 Z " fill="rgb(255,206,169)"/><path d=" M 168.896 71.203 C 168.789 71.203 168.688 71.203 168.581 71.203 C 168.85 71.01 168.964 70.666 168.866 70.35 C 168.767 70.034 168.477 69.817 168.146 69.811 C 167.668 69.811 162.949 68.828 162.949 68.828 L 162.382 66.888 C 162.35 66.781 161.563 67.272 161.538 67.297 C 160.73 67.826 160.207 68.693 160.114 69.653 C 160.061 70.999 160.548 72.311 161.468 73.295 C 162.315 74.151 163.459 74.647 164.662 74.681 C 165.236 74.719 165.784 74.744 166.282 74.782 C 166.506 74.799 166.727 74.723 166.893 74.571 C 167.059 74.42 167.154 74.206 167.157 73.981 L 167.302 73.981 C 167.416 74.005 167.534 74.005 167.649 73.981 L 167.888 73.981 C 168.688 73.981 168.751 72.986 168.203 72.621 C 168.461 72.621 168.72 72.671 168.978 72.671 C 169.942 72.69 169.86 71.197 168.896 71.203 Z " fill="rgb(255,206,169)"/><path d=" M 184.28 36.623 C 184.28 36.623 181.868 36.503 180.866 35.092 C 181.049 32.685 184.129 23.538 190.316 22.857 C 188.627 24.038 187.289 25.653 186.441 27.532 C 185.333 30.285 184.28 36.623 184.28 36.623 Z " fill="rgb(237,237,237)"/><path d=" M 215.755 48.706 C 215.755 48.706 209.581 50.835 205.234 47.257 C 204.762 46.438 207.754 35.917 207.754 35.917 C 207.754 35.917 210.343 30.55 214.401 32.685 C 218.458 34.821 215.755 48.706 215.755 48.706 Z " fill="rgb(237,237,237)"/></g><g opacity="0.4"><ellipse vector-effect="non-scaling-stroke" cx="17.02933806083361" cy="182.16427034102546" rx="13.116502595910049" ry="7.572543765746332" fill="rgb(214,216,229)"/></g><ellipse vector-effect="non-scaling-stroke" cx="18.900424166013863" cy="180.75938077383634" rx="13.116502595910049" ry="7.572543765746332" fill="rgb(214,216,229)"/><path d=" M 1.342 154.86 L 5.929 181.289 L 31.985 181.289 L 36.465 155.056 L 1.342 154.86 L 1.342 154.86 Z " fill="rgb(214,216,229)"/><ellipse vector-effect="non-scaling-stroke" cx="18.900424166013874" cy="154.5326755352323" rx="17.5768694729054" ry="10.149224631129243" fill="rgb(228,230,239)"/><path d=" M 18.894 162.445 C 14.585 162.445 10.572 161.494 7.554 159.774 C 4.99 158.294 3.522 156.385 3.522 154.533 C 3.522 152.68 4.99 150.753 7.554 149.297 C 10.54 147.571 14.553 146.626 18.894 146.626 C 23.235 146.626 27.223 147.571 30.234 149.297 C 32.792 150.778 34.26 152.687 34.26 154.533 C 34.26 156.379 32.792 158.313 30.234 159.774 C 27.229 161.494 23.21 162.445 18.894 162.445 Z " fill="rgb(40,34,28)"/><path d=" M 26.454 146.538 C 26.454 146.538 26.108 125.118 18.894 117.558 C 10.074 125.32 11.473 146.588 11.473 146.588 L 19.033 160.247 L 19.033 160.247 C 20.016 160.285 26.454 146.538 26.454 146.538 Z " fill="rgb(153,181,36)"/><path d=" M 19.008 160.234 C 19.008 160.234 15.001 134.568 0.108 124.954 C 0.101 124.923 -2.564 160.102 19.008 160.234 Z " fill="rgb(166,206,40)"/><path d=" M 18.894 160.234 C 18.894 160.234 22.51 135.034 37.032 125.988 C 37.038 125.988 40.471 160.102 18.894 160.234 Z " fill="rgb(166,206,40)"/></g></g></g></svg>